# xmcd CD database file
#
# Track frame offsets:
#	150
#	12650
#	24977
#	36010
#	47890
#	58337
#	69177
#	79512
#	92757
#	107210
#	117275
#	130197
#	143397
#	155462
#	168530
#	181500
#	193702
#	206570
#	215875
#	229145
#	242657
#	254265
#	264520
#	278100
#	286910
#	298292
#	312520
#	323500
#	335457
#	347107
#
# Disc length: 4749 seconds
#
# Revision: 0
# Processed by: cddbd v1.4PL0 Copyright (c) Steve Scherf et al.
# Submitted via: CDex 1.50Beta7
#
DISCID=be128b1e
DTITLE=Bill Monroe - Blue Moon Of Kentucky 1936-1949 [CD2]
DYEAR=2002
DGENRE=Country
TTITLE0=Where is My Sailor Boy¿ (1936)
TTITLE1=I am Ready to Go (1937)
TTITLE2=What Would the Profit Be¿ (1937)
TTITLE3=Some Glad day (1937)
TTITLE4=I Have Found the Way (1937)
TTITLE5=I am Going That Way (1937)
TTITLE6=Kate Cline (1937)
TTITLE7=Roll On, Buddy (1937)
TTITLE8=Weeping Willow Tree (1937)
TTITLE9=I'll Live On (1937)
TTITLE10=Oh, Hide You in the Blood (1937)
TTITLE11=What Would You Give in Exchange, part 2 (1937)
TTITLE12=On That Gospel Ship (1937)
TTITLE13=What Would You Give in Exchange, part 3 (1937)
TTITLE14=Let Us be Lovers Again (1937)
TTITLE15=All the Good Times are Past and Gone (1937)
TTITLE16=What Would You Give in Exchange, part 4 (1937)
TTITLE17=On My Way to Glory (1937)
TTITLE18=My Last Moving Day (1937)
TTITLE19=He Will Set Your Fields on Fire (1937)
TTITLE20=Sinner, You Better Get Ready (1937)
TTITLE21=Have a Feast Here Tonight (1938)
TTITLE22=Goodbye, Maggie (1938)
TTITLE23=Rollin' On (1938)
TTITLE24=The Old Man's Story (1938)
TTITLE25=I've Still Got Ninety-Nine (1938)
TTITLE26=Little Joe (1938)
TTITLE27=A Beautiful Life (1938)
TTITLE28=Pearly Gates (1938)
TTITLE29=On My Way Back Home (1938)
EXTD=YEAR: 2002
EXTT0=
EXTT1=
EXTT2=
EXTT3=
EXTT4=
EXTT5=
EXTT6=
EXTT7=
EXTT8=
EXTT9=
EXTT10=
EXTT11=
EXTT12=
EXTT13=
EXTT14=
EXTT15=
EXTT16=
EXTT17=
EXTT18=
EXTT19=
EXTT20=
EXTT21=
EXTT22=
EXTT23=
EXTT24=
EXTT25=
EXTT26=
EXTT27=
EXTT28=
EXTT29=
PLAYORDER=
